name ./resultDataOpenSim/trcMotMarkerGrf/sub10/grf-13-01.mot
datacolumns 19
datarows 17
range 0.44400000 0.50800000
endheader

                time	     ground_force_vx	     ground_force_vy	     ground_force_vz	     ground_force_px	     ground_force_py	     ground_force_pz	   l_ground_force_vx	   l_ground_force_vy	   l_ground_force_vz	   l_ground_force_px	   l_ground_force_py	   l_ground_force_pz	     ground_torque_x	     ground_torque_y	     ground_torque_z	   l_ground_torque_x	   l_ground_torque_y	   l_ground_torque_z	
          0.44400000	         17.12309518	        402.12676666	         -3.55804778	         -0.75602781	          0.00000000	          0.00599584	          0.00000000	          0.00000000	          0.00000000	          0.00000000	          0.00000000	          0.00000000	          0.00000000	          3.94214907	          0.00000000	          0.00000000	          0.00000000	          0.00000000	
          0.44800000	         18.40640367	        404.79386852	         -5.72566537	         -0.75496810	          0.00000000	          0.00617842	          0.00000000	          0.00000000	          0.00000000	          0.00000000	          0.00000000	          0.00000000	          0.00000000	          3.92703644	          0.00000000	          0.00000000	          0.00000000	          0.00000000	
          0.45200000	         20.67598067	        408.57457560	         -7.65453978	         -0.75409565	          0.00000000	          0.00639262	          0.00000000	          0.00000000	          0.00000000	          0.00000000	          0.00000000	          0.00000000	          0.00000000	          3.93526501	          0.00000000	          0.00000000	          0.00000000	          0.00000000	
          0.45600000	         23.80609951	        413.46160117	         -9.08551374	         -0.75338581	          0.00000000	          0.00662159	          0.00000000	          0.00000000	          0.00000000	          0.00000000	          0.00000000	          0.00000000	          0.00000000	          3.99471635	          0.00000000	          0.00000000	          0.00000000	          0.00000000	
          0.46000000	         27.48851761	        419.42374845	         -9.89578873	         -0.75278661	          0.00000000	          0.00684531	          0.00000000	          0.00000000	          0.00000000	          0.00000000	          0.00000000	          0.00000000	          0.00000000	          4.11869329	          0.00000000	          0.00000000	          0.00000000	          0.00000000	
          0.46400000	         31.33831764	        426.41470427	        -10.13110494	         -0.75223006	          0.00000000	          0.00704979	          0.00000000	          0.00000000	          0.00000000	          0.00000000	          0.00000000	          0.00000000	          0.00000000	          4.30348399	          0.00000000	          0.00000000	          0.00000000	          0.00000000	
          0.46800000	         35.01811804	        434.38700447	         -9.99933704	         -0.75164713	          0.00000000	          0.00723195	          0.00000000	          0.00000000	          0.00000000	          0.00000000	          0.00000000	          0.00000000	          0.00000000	          4.52965907	          0.00000000	          0.00000000	          0.00000000	          0.00000000	
          0.47200000	         38.33889944	        443.28667960	         -9.82640830	         -0.75098654	          0.00000000	          0.00739977	          0.00000000	          0.00000000	          0.00000000	          0.00000000	          0.00000000	          0.00000000	          0.00000000	          4.76653221	          0.00000000	          0.00000000	          0.00000000	          0.00000000	
          0.47600000	         41.30578040	        453.03245196	         -9.98457981	         -0.75021934	          0.00000000	          0.00757002	          0.00000000	          0.00000000	          0.00000000	          0.00000000	          0.00000000	          0.00000000	          0.00000000	          4.97877850	          0.00000000	          0.00000000	          0.00000000	          0.00000000	
          0.48000000	         44.09989234	        463.50547205	        -10.80707288	         -0.74933856	          0.00000000	          0.00776036	          0.00000000	          0.00000000	          0.00000000	          0.00000000	          0.00000000	          0.00000000	          0.00000000	          5.13399551	          0.00000000	          0.00000000	          0.00000000	          0.00000000	
          0.48400000	         47.00858498	        474.56680648	        -12.50728151	         -0.74834323	          0.00000000	          0.00798120	          0.00000000	          0.00000000	          0.00000000	          0.00000000	          0.00000000	          0.00000000	          0.00000000	          5.20984302	          0.00000000	          0.00000000	          0.00000000	          0.00000000	
          0.48800000	         50.32704905	        486.09697564	        -15.12357696	         -0.74723036	          0.00000000	          0.00822611	          0.00000000	          0.00000000	          0.00000000	          0.00000000	          0.00000000	          0.00000000	          0.00000000	          5.19931934	          0.00000000	          0.00000000	          0.00000000	          0.00000000	
          0.49200000	         54.25882304	        498.02167691	        -18.50444468	         -0.74601272	          0.00000000	          0.00847560	          0.00000000	          0.00000000	          0.00000000	          0.00000000	          0.00000000	          0.00000000	          0.00000000	          5.11291172	          0.00000000	          0.00000000	          0.00000000	          0.00000000	
          0.49600000	         58.84511786	        510.29891915	        -22.33780404	         -0.74471547	          0.00000000	          0.00870978	          0.00000000	          0.00000000	          0.00000000	          0.00000000	          0.00000000	          0.00000000	          0.00000000	          4.97693829	          0.00000000	          0.00000000	          0.00000000	          0.00000000	
          0.50000000	         63.94734398	        522.90000431	        -26.21701696	         -0.74334762	          0.00000000	          0.00890878	          0.00000000	          0.00000000	          0.00000000	          0.00000000	          0.00000000	          0.00000000	          0.00000000	          4.82829371	          0.00000000	          0.00000000	          0.00000000	          0.00000000	
          0.50400000	         69.28319713	        535.82992592	        -29.72254595	         -0.74189866	          0.00000000	          0.00904377	          0.00000000	          0.00000000	          0.00000000	          0.00000000	          0.00000000	          0.00000000	          0.00000000	          4.70672174	          0.00000000	          0.00000000	          0.00000000	          0.00000000	
          0.50800000	         74.49128446	        549.17043566	        -32.50471108	         -0.74035941	          0.00000000	          0.00909423	          0.00000000	          0.00000000	          0.00000000	          0.00000000	          0.00000000	          0.00000000	          0.00000000	          4.64633648	          0.00000000	          0.00000000	          0.00000000	          0.00000000	
